# xmcd
#
# Track frame offsets:
#	150
#	16425
#	41325
#	62665
#	86480
#	101080
#	123545
#	138350
#	163182
#	184132
#	206412
#	220157
#	235852
#
# Disc length: 3466 seconds
#
# Revision: 0
# Processed by: cddbd v1.4PL0 Copyright (c) Steve Scherf et al.
# Submitted via: dBpowerAMP V4.0
#
DISCID=b30d880d
DTITLE=Chris Lyngedal - More Blue Moments
DYEAR=1900
DGENRE=Blues/Rock
TTITLE0=Still alive and well
TTITLE1=Cowboys and Cossacks
TTITLE2=Fuss and fight
TTITLE3=Freedom for the stallion
TTITLE4=Crazy jealous
TTITLE5=You can't judge a book
TTITLE6=Before you 'cause me
TTITLE7=Sail away
TTITLE8=Crystal closet queen
TTITLE9=As the people forge the link
TTITLE10=Cryin' for my baby
TTITLE11=Do you love me?
TTITLE12=Lovers
EXTD=
EXTT0=
EXTT1=
EXTT2=
EXTT3=
EXTT4=
EXTT5=
EXTT6=
EXTT7=
EXTT8=
EXTT9=
EXTT10=
EXTT11=
EXTT12=
PLAYORDER=
